<svg width="20" height="20" viewBox="0 0 20 20" fill="none" xmlns="http://www.w3.org/2000/svg">
<path d="M16.1708 4.4619C15.0028 3.92715 13.7697 3.54779 12.5031 3.3335C12.3298 3.64334 12.173 3.96212 12.0333 4.28851C10.6841 4.08521 9.31207 4.08521 7.96289 4.28851C7.82315 3.96215 7.66632 3.64337 7.49307 3.3335C6.22565 3.5496 4.99177 3.92986 3.82258 4.46469C1.50144 7.89883 0.872209 11.2477 1.18682 14.549C2.54614 15.5533 4.06761 16.3171 5.68509 16.8072C6.0493 16.3173 6.37158 15.7977 6.64851 15.2537C6.12252 15.0573 5.61485 14.8149 5.13137 14.5294C5.25862 14.4371 5.38306 14.342 5.50332 14.2498C6.91012 14.9113 8.44558 15.2544 10.0002 15.2544C11.5548 15.2544 13.0903 14.9113 14.4971 14.2498C14.6187 14.349 14.7432 14.4441 14.869 14.5294C14.3846 14.8154 13.876 15.0582 13.3491 15.2551C13.6257 15.7988 13.948 16.318 14.3125 16.8072C15.9313 16.3191 17.454 15.5556 18.8136 14.5504C19.1827 10.7219 18.1829 7.40385 16.1708 4.4619ZM7.04702 12.5187C6.1703 12.5187 5.44599 11.7231 5.44599 10.7443C5.44599 9.76552 6.14513 8.96291 7.04422 8.96291C7.94332 8.96291 8.66203 9.76552 8.64665 10.7443C8.63127 11.7231 7.94052 12.5187 7.04702 12.5187ZM12.9534 12.5187C12.0752 12.5187 11.3537 11.7231 11.3537 10.7443C11.3537 9.76552 12.0529 8.96291 12.9534 8.96291C13.8538 8.96291 14.567 9.76552 14.5516 10.7443C14.5362 11.7231 13.8469 12.5187 12.9534 12.5187Z" fill="white"/>
</svg>
