<svg width="20" height="20" viewBox="0 0 20 20" fill="none" xmlns="http://www.w3.org/2000/svg">
<path d="M17.8542 15.3103C17.5832 15.3129 17.3243 15.4227 17.1341 15.6157C16.9438 15.8087 16.8378 16.0692 16.8391 16.3402C16.8404 16.6112 16.9489 16.8707 17.141 17.0618C17.3331 17.253 17.5931 17.3603 17.8641 17.3603C18.1351 17.3603 18.395 17.253 18.5871 17.0618C18.7792 16.8707 18.8878 16.6112 18.8891 16.3402C18.8904 16.0692 18.7843 15.8087 18.5941 15.6157C18.4039 15.4227 18.1449 15.3129 17.8739 15.3103H17.8542ZM17.8542 17.2429C17.6765 17.2459 17.5018 17.1961 17.3524 17.0998C17.203 17.0035 17.0855 16.8651 17.0147 16.702C16.944 16.5389 16.9232 16.3585 16.9549 16.1836C16.9867 16.0087 17.0696 15.8471 17.1932 15.7194C17.3168 15.5916 17.4755 15.5033 17.6493 15.4658C17.823 15.4282 18.004 15.443 18.1693 15.5083C18.3347 15.5735 18.477 15.6864 18.5782 15.8325C18.6794 15.9787 18.735 16.1515 18.7379 16.3293V16.3444C18.7429 16.5775 18.6551 16.8031 18.4938 16.9716C18.3324 17.14 18.1108 17.2374 17.8777 17.2425H17.8545M13.9195 15.0303H11.6922V11.5422C11.6922 10.7104 11.6774 9.63969 10.5338 9.63969C9.37373 9.63969 9.19624 10.5459 9.19624 11.4816V15.03H6.96893V7.85714H9.10715V8.83739H9.13707C9.35106 8.47152 9.66027 8.17053 10.0318 7.96649C10.4033 7.76245 10.8232 7.663 11.2468 7.67872C13.5042 7.67872 13.9205 9.1636 13.9205 11.0953L13.9195 15.0303ZM4.45578 6.87666C4.20014 6.8767 3.95022 6.80094 3.73764 6.65895C3.52506 6.51696 3.35936 6.31513 3.26148 6.07896C3.16361 5.8428 3.13797 5.58292 3.1878 5.33218C3.23763 5.08145 3.36069 4.85112 3.54142 4.67032C3.72215 4.48952 3.95244 4.36638 4.20315 4.31646C4.45387 4.26654 4.71376 4.29209 4.94996 4.38988C5.18616 4.48767 5.38806 4.6533 5.53012 4.86583C5.67218 5.07836 5.74803 5.32825 5.74808 5.58389C5.74811 5.75362 5.71471 5.92171 5.64978 6.07854C5.58486 6.23537 5.48967 6.37787 5.36967 6.49792C5.24967 6.61796 5.1072 6.71319 4.95039 6.77818C4.79358 6.84316 4.62552 6.87663 4.45578 6.87666ZM5.56943 15.0303H3.3398V7.85714H5.56943V15.0303ZM15.0299 2.22319H2.22057C1.92984 2.21991 1.64969 2.33219 1.4417 2.53536C1.2337 2.73852 1.11488 3.01595 1.11133 3.30669V16.1692C1.11475 16.4601 1.23351 16.7377 1.4415 16.9411C1.64948 17.1445 1.92969 17.257 2.22057 17.2539H15.0299C15.3214 17.2575 15.6024 17.1453 15.8112 16.942C16.02 16.7386 16.1396 16.4607 16.1436 16.1692V3.30576C16.1394 3.01445 16.0198 2.7367 15.811 2.53354C15.6022 2.33038 15.3213 2.21842 15.0299 2.22226M18.0169 16.4003C18.055 16.4007 18.0928 16.3932 18.128 16.3784C18.1631 16.3635 18.1948 16.3416 18.2211 16.314C18.2475 16.2864 18.2678 16.2537 18.281 16.2179C18.2941 16.1821 18.2998 16.1439 18.2976 16.1059C18.2976 15.897 18.1716 15.7973 17.9131 15.7973H17.4955V16.8905H17.6526V16.414H17.8456L17.85 16.4198L18.1496 16.8905H18.3176L17.9953 16.4033L18.0169 16.4003ZM17.8352 16.2908H17.6531V15.9212H17.8839C18.0032 15.9212 18.1391 15.9407 18.1391 16.0968C18.1391 16.2764 18.0016 16.2908 17.8343 16.2908" fill="white"/>
</svg>
